<svg t="1705580318104" class="icon" viewBox="0 0 1024 1024" version="1.1" xmlns="http://www.w3.org/2000/svg" p-id="1885" width="64" height="64"><path d="M976 448a110.56 110.56 0 0 1-28.96 74.88 36.48 36.48 0 0 1-3.52 3.52A110.24 110.24 0 0 1 864 560H192a144 144 0 0 1-144-144 141.6 141.6 0 0 1 20.16-73.28 8.64 8.64 0 0 1 1.12-2.08 147.84 147.84 0 0 1 48-48l1.92-1.12 5.6-3.52a153.12 153.12 0 0 1 20.48-8.48 261.12 261.12 0 0 1 12-57.6 256 256 0 0 1 469.44-36.48A195.36 195.36 0 0 1 688 176a190.88 190.88 0 0 1 178.88 122.24 176 176 0 0 1 10.56 38.56 112 112 0 0 1 80 49.44A109.28 109.28 0 0 1 976 448z" fill="#F5F7FF" p-id="1886"></path><path d="M944 512a93.76 93.76 0 0 1-1.12 15.04A110.24 110.24 0 0 1 864 560h-96v64h-32v-64H528v64h-32v-64H288v64h-32v-64h-64a144 144 0 0 1-144-144 148.64 148.64 0 0 1 3.2-30.4 148.16 148.16 0 0 1 33.28-28.32l1.92-1.12a144 144 0 0 1 16-8.16c3.36-1.44 6.88-2.72 10.4-3.84 0-3.04 0-6.08 1.12-8.96A245.92 245.92 0 0 1 124.8 288a153.12 153.12 0 0 1 20.48-8.48 261.12 261.12 0 0 1 12-57.6 256 256 0 0 1 437.44 27.52A195.36 195.36 0 0 1 656 240a190.88 190.88 0 0 1 178.88 122.24 176 176 0 0 1 10.56 38.56 112 112 0 0 1 80 49.44 107.36 107.36 0 0 1 13.12 26.88A112 112 0 0 1 944 512z" fill="#CCD3EB" p-id="1887"></path><path d="M752 484.32v163.36c0 8.16 0 16-0.96 24.32A322.56 322.56 0 0 1 528 955.2c-5.28 1.76-10.56 3.36-16 4.8-5.44-1.44-10.72-3.04-16-4.8A323.04 323.04 0 0 1 272.96 672c0-8-0.96-16-0.96-24.32V484.32a64 64 0 0 1 48-61.76l176-48 3.84-0.96a32 32 0 0 1 24.32 0l3.84 0.96 176 48a64 64 0 0 1 48 61.76z" fill="#0074FF" p-id="1888"></path><path d="M957.28 386.24a112 112 0 0 0-80-49.44 176 176 0 0 0-10.56-38.56A190.88 190.88 0 0 0 688 176a195.36 195.36 0 0 0-60.96 9.92A256 256 0 0 0 157.6 222.4a261.12 261.12 0 0 0-12 57.6 153.12 153.12 0 0 0-20.64 8l-6.24 3.52-1.92 1.12a147.84 147.84 0 0 0-47.2 48 8.64 8.64 0 0 0-1.12 2.08A141.6 141.6 0 0 0 48 416a144 144 0 0 0 144 144h64v96a11.2 11.2 0 0 0 0 2.24A339.68 339.68 0 0 0 507.84 976a18.24 18.24 0 0 0 8.32 0 341.28 341.28 0 0 0 181.6-121.6A336 336 0 0 0 768 658.08a8 8 0 0 0 0-2.08 4.64 4.64 0 0 0 0-1.44V560h96a110.24 110.24 0 0 0 78.88-32.96 36.48 36.48 0 0 0 3.52-3.52A110.56 110.56 0 0 0 976 448a109.28 109.28 0 0 0-18.72-61.76zM496 938.24A307.84 307.84 0 0 1 288.96 672H496z m176-103.36a310.56 310.56 0 0 1-144 103.36V672h207.04A306.56 306.56 0 0 1 672 834.88zM736 640H528V391.36l172.48 46.72A48 48 0 0 1 736 484.32z m202.4-162.88a75.84 75.84 0 0 1-14.72 24A78.88 78.88 0 0 1 864 528h-96v-43.68a80 80 0 0 0-59.2-77.28l-179.68-48a48 48 0 0 0-34.4 0l-34.88 9.6a16 16 0 0 0-11.2 19.52 16 16 0 0 0 19.52 11.36l27.84-8.16V640H288v-155.68a48 48 0 0 1 35.52-46.24l16.8-4.48a16 16 0 0 0-8.32-31.04l-16.8 4.48a80 80 0 0 0-59.2 77.28V528h-64a112 112 0 0 1-98.08-58.08 112 112 0 0 1 2.56-112 8.64 8.64 0 0 0 1.12-2.08c1.6-2.56 3.52-5.12 5.44-7.68a87.68 87.68 0 0 1 11.52-12.8 106.56 106.56 0 0 1 17.12-13.6l2.08-1.76a106.72 106.72 0 0 1 30.56-12.96h0.96a17.76 17.76 0 0 0 3.04-1.44l2.24-1.44 2.24-2.4c0-0.8 1.12-1.44 1.6-2.4a12.16 12.16 0 0 0 0.96-2.88 19.36 19.36 0 0 0 0-2.88v-0.8A224 224 0 0 1 400 80a224 224 0 0 1 204.48 132.48 8.48 8.48 0 0 0 1.76 2.4 7.36 7.36 0 0 0 1.76 2.56 24.48 24.48 0 0 0 2.56 1.76 24.16 24.16 0 0 0 2.72 1.6h5.92a16.96 16.96 0 0 0 3.04 0 10.4 10.4 0 0 0 3.04 0A161.44 161.44 0 0 1 688 208a160 160 0 0 1 149.12 101.92 152.8 152.8 0 0 1 10.88 43.52 16 16 0 0 0 16 14.56 80 80 0 0 1 66.72 36 79.2 79.2 0 0 1 7.68 73.12z" fill="#033C59" p-id="1889"></path><path d="M400 384l-7.52 2.08a16 16 0 0 0 4.32 32 13.44 13.44 0 0 0 4.32 0l7.52-2.08a16 16 0 0 0-8.64-32z" fill="#033C59" p-id="1890"></path></svg>